<svg height="1300" viewBox="0 0 653.52082 343.95834" width="2470" xmlns="http://www.w3.org/2000/svg"><g transform="translate(0 46.95835)"><path d="m0-46.95835h653.52083v343.95833h-653.52083z" fill="#bf0a30" stroke-width=".264583"/><g fill="#fff" transform="matrix(.26458333 0 0 .26458333 0 -46.95835)"><path d="m0 100h2470v100h-2470z"/><path d="m0 300h2470v100h-2470z"/><path d="m0 500h2470v100h-2470z"/></g><g fill="#fff" transform="matrix(.26458333 0 0 .26458333 0 111.79165)"><path d="m0 100h2470v100h-2470z"/><path d="m0 300h2470v100h-2470z"/><path d="m0 500h2470v100h-2470z"/></g><g transform="matrix(.26458333 0 0 .26458333 -1122.0979 739.95169)"><path d="m0-46.95835h261.40833v185.20833h-261.40833z" fill="#002868" stroke-width=".264583" transform="matrix(3.7795276 0 0 3.7795276 4241 -2796.6678)"/><g fill="#fff" stroke-width=".184375"><path d="m4338.5987-2446.7358 10.8233 33.5666 35.2683-.075-28.5791 20.6663 10.9698 33.5191-28.4862-20.7942-28.4886 20.7908 10.9737-33.5178-28.5767-20.6695 35.2683.079z"/><path d="m4449.2236-2446.7358 10.8233 33.5666 35.2683-.075-28.5791 20.6663 10.9698 33.5191-28.4862-20.7942-28.4886 20.7909 10.9737-33.5179-28.5767-20.6695 35.2684.079z"/><path d="m4559.8486-2446.7358 10.8233 33.5666 35.2683-.075-28.5791 20.6663 10.9698 33.5191-28.4862-20.7942-28.4886 20.7909 10.9737-33.5179-28.5767-20.6695 35.2684.079z"/><path d="m4670.4736-2446.7358 10.8233 33.5666 35.2683-.075-28.5791 20.6663 10.9699 33.5191-28.4863-20.7942-28.4886 20.7909 10.9738-33.5179-28.5768-20.6695 35.2684.079z"/><path d="m4781.0986-2446.7358 10.8233 33.5666 35.2683-.075-28.5791 20.6663 10.9698 33.519-28.4862-20.7941-28.4886 20.7908 10.9737-33.5178-28.5767-20.6695 35.2683.079z"/><path d="m4891.7236-2446.7358 10.8233 33.5666 35.2684-.075-28.5792 20.6663 10.9699 33.5191-28.4862-20.7942-28.4887 20.7909 10.9738-33.5179-28.5768-20.6695 35.2684.079z"/><path d="m5002.3486-2446.7358 10.8233 33.5666 35.2683-.075-28.5791 20.6663 10.9698 33.5191-28.4862-20.7942-28.4886 20.7909 10.9737-33.5179-28.5767-20.6695 35.2683.079z"/><path d="m5112.9689-2446.7358 10.8233 33.5666 35.2684-.075-28.5792 20.6663 10.9699 33.5191-28.4862-20.7942-28.4887 20.7909 10.9738-33.5179-28.5768-20.6695 35.2684.079z"/><path d="m4449.219-2594.2358 10.8233 33.5666 35.2683-.075-28.5791 20.6663 10.9698 33.5191-28.4862-20.7942-28.4886 20.7909 10.9737-33.5179-28.5767-20.6695 35.2683.079z"/><path d="m4559.8439-2594.2358 10.8233 33.5666 35.2683-.075-28.5791 20.6663 10.9698 33.5191-28.4862-20.7942-28.4886 20.7909 10.9737-33.5179-28.5767-20.6695 35.2684.079z"/><path d="m4670.4689-2594.2358 10.8233 33.5666 35.2683-.075-28.5791 20.6663 10.9699 33.5191-28.4863-20.7942-28.4886 20.7909 10.9738-33.5179-28.5768-20.6695 35.2684.079z"/><path d="m4781.0939-2594.2358 10.8233 33.5666 35.2683-.075-28.5791 20.6663 10.9699 33.5191-28.4863-20.7942-28.4886 20.7909 10.9738-33.5179-28.5768-20.6695 35.2684.079z"/><path d="m4891.7189-2594.2358 10.8233 33.5666 35.2683-.075-28.5791 20.6662 10.9699 33.5191-28.4863-20.7941-28.4886 20.7908 10.9738-33.5178-28.5768-20.6695 35.2684.079z"/><path d="m5002.3439-2594.2358 10.8233 33.5666 35.2683-.075-28.5791 20.6663 10.9699 33.5191-28.4863-20.7942-28.4886 20.7909 10.9738-33.5179-28.5768-20.6695 35.2684.079z"/><path d="m4393.9065-2741.7358 10.8232 33.5666 35.2684-.075-28.5791 20.6663 10.9698 33.5191-28.4862-20.7942-28.4886 20.7909 10.9737-33.5179-28.5767-20.6695 35.2683.079z"/><path d="m4504.5314-2741.7358 10.8233 33.5666 35.2683-.075-28.5791 20.6663 10.9698 33.5191-28.4862-20.7942-28.4886 20.7909 10.9737-33.5179-28.5767-20.6695 35.2683.079z"/><path d="m4615.1564-2741.7358 10.8233 33.5666 35.2683-.075-28.5791 20.6663 10.9698 33.5191-28.4862-20.7942-28.4886 20.7909 10.9737-33.5179-28.5767-20.6695 35.2683.079z"/><path d="m4725.7814-2741.7358 10.8233 33.5666 35.2683-.075-28.5791 20.6663 10.9699 33.5191-28.4863-20.7942-28.4886 20.7909 10.9738-33.5179-28.5768-20.6695 35.2684.079z"/><path d="m4836.4064-2741.7358 10.8232 33.5666 35.2684-.075-28.5791 20.6663 10.9698 33.5191-28.4862-20.7942-28.4886 20.7909 10.9737-33.5179-28.5767-20.6695 35.2683.079z"/><path d="m4947.0314-2741.7358 10.8233 33.5666 35.2683-.075-28.5791 20.6663 10.9699 33.5191-28.4863-20.7942-28.4886 20.7909 10.9738-33.5179-28.5768-20.6695 35.2684.079z"/><path d="m5057.6564-2741.7358 10.8233 33.5666 35.2684-.075-28.5792 20.6663 10.9699 33.5191-28.4862-20.7942-28.4887 20.7909 10.9738-33.5179-28.5768-20.6695 35.2684.079z"/><path d="m4357.0361-2889.2358 10.8233 33.5666 35.2683-.075-28.5791 20.6662 10.9698 33.5191-28.4862-20.7942-28.4886 20.7909 10.9737-33.5178-28.5767-20.6695 35.2684.079z"/><path d="m4467.661-2889.2358 10.8233 33.5666 35.2683-.075-28.5791 20.6662 10.9699 33.5191-28.4863-20.7941-28.4886 20.7908 10.9738-33.5178-28.5768-20.6695 35.2684.079z"/><path d="m4578.286-2889.2358 10.8233 33.5666 35.2684-.075-28.5792 20.6662 10.9699 33.5191-28.4862-20.7941-28.4887 20.7908 10.9738-33.5178-28.5768-20.6695 35.2684.079z"/><path d="m4688.9111-2889.2358 10.8232 33.5666 35.2684-.075-28.5792 20.6662 10.9699 33.5191-28.4862-20.7941-28.4886 20.7908 10.9737-33.5178-28.5768-20.6695 35.2684.079z"/><path d="m4799.536-2889.2358 10.8233 33.5666 35.2683-.075-28.5791 20.6662 10.9698 33.5191-28.4862-20.7941-28.4886 20.7908 10.9737-33.5178-28.5767-20.6695 35.2684.079z"/><path d="m4910.1611-2889.2358 10.8233 33.5666 35.2683-.075-28.5791 20.6662 10.9698 33.5191-28.4862-20.7941-28.4886 20.7908 10.9737-33.5178-28.5767-20.6695 35.2683.079z"/><path d="m5020.786-2889.2358 10.8233 33.5666 35.2683-.075-28.5791 20.6662 10.9698 33.5191-28.4862-20.7941-28.4886 20.7908 10.9737-33.5178-28.5767-20.6695 35.2684.079z"/><path d="m5131.4063-2889.2358 10.8233 33.5666 35.2684-.075-28.5792 20.6662 10.9699 33.5191-28.4862-20.7941-28.4887 20.7908 10.9738-33.5178-28.5768-20.6695 35.2684.079z"/></g></g></g></svg>